<?xml version="1.0" encoding="utf-8"?>
<!-- Generator: Adobe Illustrator 19.0.0, SVG Export Plug-In . SVG Version: 6.00 Build 0)  -->
<svg version="1.1" id="Layer_1" xmlns="http://www.w3.org/2000/svg" xmlns:xlink="http://www.w3.org/1999/xlink" x="0px" y="0px"
	 viewBox="0 0 902.8 909.8" style="enable-background:new 0 0 902.8 909.8;" xml:space="preserve">
<style type="text/css">
	.st0{fill:#4D1E71;}
	.st1{fill:#020202;}
	.st2{fill:#F5D178;}
	.st3{fill:#70AE15;}
</style>
<g>
	<g>
		<path class="st0" d="M0.9,426.7c0-140.6,0-281.2-0.1-421.8c0-3.3,0.7-4.1,4.1-4.1c298.3,0.1,596.6,0.1,894.8,0
			c3.3,0,4.1,0.7,4.1,4.1c-0.1,300.6-0.1,601.3,0,901.9c0,3.3-0.7,4.1-4.1,4.1c-22.2-0.2-44.5-0.1-66.7-0.1c-1.4-1.3-2.6-3.2-4.3-4
			c-18.9-8.9-37.7-18.1-56.8-26.3c-16.8-7.2-34-13.3-51-19.9c5.7-3.3,11.5-6.6,17.2-9.9c61.7-36.4,112.9-84.2,153.9-142.8
			c0.7-1,1.2-2.3,1.8-3.4c-1.3,0.4-2.7,0.6-4,1.1c-16.4,7.6-32.5,16-49.2,22.7c-62.8,25.1-128.1,36.2-195.7,34.2
			c-1-3.2-1.8-6.4-3-9.5c-7.4-19.1-15.5-37.9-22.3-57.2c-9.4-26.8-18.2-53.8-26.8-80.9c-7.6-23.9-16.7-47.1-30.8-67.8
			c-14.3-20.9-29.8-41.1-45.1-61.3c-17.8-23.3-38.8-43-63.8-58.7c-20.3-12.7-18.5-31.8-4.4-47.5c16.3-18.1,27.7-38.8,26.1-64.2
			c-0.8-12.6,2-22.3,11.4-32c18.8-19.4,35.7-40.7,43.6-67.2c1.9-6.4,2.3-14.8-0.4-20.6c-4.5-9.8-9.1-9.6-22.6-5.8
			c-21.4,6.1-42.5,13.7-62.6,23c-12.4,5.7-22.9,6.3-34.5,0c-9.6-5.1-19.8-9.2-29.2-14.7c-4.9-2.9-10-7-12.6-11.8
			c-3.1-5.9-4.5-13.1-5.1-19.8c-1.9-22.9-2.8-45.9-9-68.4c-5.5-20-15.7-24.4-30.2-10.1c-8.5,8.4-15.2,18.9-22,28.9
			c-10.2,15-18.5,30.9-20.9,49.4c-1.6,12.2-5,23.5-14.7,32.4c-6.7,6.2-12.5,13.5-18.2,20.7c-15,19-23.9,41-25.9,64.8
			c-1.9,22.2-0.8,44.7-1.2,67c-0.1,4.3-0.9,8.7-2.2,12.8c-4.2,13.1-8.6,26.1-13.1,39.1c-3,8.5-6.3,16.9-9.5,25.4
			c-0.2-1.1-0.2-2.3-0.6-3.4c-24.5-75.8-30.1-153.1-17.3-231.6c11-67.3,35.5-129.5,72.7-186.7c0.7-1.1,1.1-2.3,1.6-3.4
			c-1.2,0.4-2.5,0.5-3.5,1.1c-49.6,28.2-92.9,64-130,107.2C79.8,156.9,50,207.6,29.9,263.9C13,311.4,2.8,360.2,2.1,410.8
			C2,416.1,1.3,421.4,0.9,426.7z"/>
		<path class="st1" d="M195.7,428.3c3.2-8.5,6.5-16.9,9.5-25.4c4.5-13,9-26,13.1-39.1c1.3-4.1,2.1-8.5,2.2-12.8
			c0.5-22.4-0.7-44.8,1.2-67c2-23.8,10.9-45.8,25.9-64.8c5.7-7.2,11.4-14.5,18.2-20.7c9.7-8.9,13.2-20.1,14.7-32.4
			c2.4-18.5,10.7-34.4,20.9-49.4c6.8-10,13.5-20.5,22-28.9c14.4-14.3,24.6-9.9,30.2,10.1c6.2,22.5,7.1,45.4,9,68.4
			c0.6,6.8,2,13.9,5.1,19.8c2.6,4.9,7.7,9,12.6,11.8c9.4,5.5,19.6,9.6,29.2,14.7c11.7,6.2,22.1,5.7,34.5,0
			c20.2-9.3,41.3-16.9,62.6-23c13.5-3.8,18-4,22.6,5.8c2.7,5.8,2.3,14.2,0.4,20.6c-7.9,26.5-24.8,47.9-43.6,67.2
			c-9.5,9.8-12.2,19.4-11.4,32c1.6,25.4-9.8,46-26.1,64.2c-14.1,15.7-15.9,34.8,4.4,47.5c25,15.7,46.1,35.4,63.8,58.7
			c15.4,20.2,30.8,40.4,45.1,61.3c14.2,20.7,23.3,43.9,30.8,67.8c8.6,27.1,17.4,54.1,26.8,80.9c6.8,19.3,14.9,38.2,22.3,57.2
			c1.2,3.1,2,6.3,3,9.5c0.7,4.2,1.8,8.3,2,12.5c0.6,10.8,0.8,21.7,1.3,32.6c0.5,11.3,4.8,21.9,14.3,27.4c14.3,8.2,30,14.1,45.1,20.9
			c1.6,0.6,3.1,1.1,4.7,1.7c0.3,0.2,0.5,0.3,0.8,0.5c0.5,0.2,1,0.5,1.5,0.7c0.9,0.2,1.9,0.3,2.8,0.5c0.8,0.4,1.6,0.9,2.4,1.3
			c0.4,0.1,0.7,0.1,1.1,0.2c17,6.6,34.3,12.7,51,19.9c19.2,8.2,37.9,17.4,56.8,26.3c1.7,0.8,2.9,2.6,4.3,4c-184,0-368.1,0-552.1,0
			c0.3-1.4,0.3-2.9,0.8-4.3c4.1-12.5,4.5-25.2,1.6-38c-2.8-17.4-5.1-34.9-8.7-52.1c-5.1-24.8-11.4-49.4-16.6-74.2
			c-3.7-17.4-11.3-33.1-20.5-47.8c-11.7-18.7-22.2-37.8-28.3-59.1c-4.7-16.6-10-33-14.7-49.6c-5.2-18.2-12.2-36.3-14.2-54.8
			c-1.7-16.2-3.3-33.1,2.2-49.8C188.1,463.9,191.4,445.9,195.7,428.3z M329.3,844.8c1,7.1,1.8,14.4,3.1,21.6
			c0.4,2.2,2.2,4.2,3.4,6.3c1.6-1.8,4-3.3,4.7-5.3c2.5-7.6,4.5-15.4,6.5-23.2c4.8-18.1,9.6-36.3,14.2-54.5c1.1-4.1-0.3-7.8-5-8
			c-4.7-0.2-9.8-0.1-14.2,1.3c-2.5,0.8-5.6,4.2-6,6.9C333.3,808.1,331.4,826.3,329.3,844.8z M322.6,252.6
			c0.7-16.1-15.2-25.4-28.4-25.6c-2.1,0-5.9,3.7-6.3,6.1c-2.9,16.1,6.3,22.6,17.3,28.9C314.6,267.4,322.7,262.5,322.6,252.6z
			 M405.5,314.6c4.3-1.4,8.7-2.4,12.7-4.4c6.3-3.2,7.6-10.4,3.5-16.2c-8.8-12.6-29.7-12.4-38.1,0.4c-0.7,1-0.8,2.7-0.5,3.9
			C384.7,305.8,396.4,313.9,405.5,314.6z"/>
		<path class="st2" d="M195.7,428.3c-4.3,17.6-7.6,35.5-13.2,52.7c-5.5,16.7-3.9,33.6-2.2,49.8c1.9,18.6,9,36.6,14.2,54.8
			c4.7,16.6,10,33,14.7,49.6c6.1,21.4,16.6,40.4,28.3,59.1c9.2,14.8,16.8,30.4,20.5,47.8c5.2,24.8,11.5,49.3,16.6,74.2
			c3.5,17.2,5.8,34.7,8.7,52.1c-0.9,6.2-4.2,1.8-5.9,1c-62.4-30.4-116.2-72-161-125.2c-48.9-58-82.7-123.8-100.9-197.6
			C7,512.3,1.6,477.4,2.1,441.8c0-3.3-0.8-6.5-1.2-9.8c0-1.8,0-3.5,0-5.3c0.4-5.3,1.1-10.6,1.2-15.8c0.7-50.6,11-99.4,27.9-146.9
			c20.1-56.3,49.8-107.1,88.7-152.4c37.1-43.3,80.4-79.1,130-107.2c1-0.6,2.3-0.8,3.5-1.1c-0.5,1.1-1,2.4-1.6,3.4
			c-37.2,57.2-61.7,119.4-72.7,186.7c-12.8,78.5-7.2,155.8,17.3,231.6C195.4,426,195.5,427.2,195.7,428.3z"/>
		<path class="st0" d="M0.9,432c0.4,3.3,1.3,6.6,1.2,9.8c-0.5,35.6,4.9,70.5,13.4,105c18.2,73.7,51.9,139.5,100.9,197.6
			c44.8,53.1,98.6,94.7,161,125.2c1.6,0.8,5,5.2,5.9-1c2.9,12.8,2.6,25.5-1.6,38c-0.4,1.4-0.5,2.8-0.8,4.3
			c-92.2,0-184.3,0-276.5,0.1c-3,0-3.6-0.6-3.6-3.6C0.9,748.8,0.9,590.4,0.9,432z"/>
		<path class="st2" d="M717.3,859c-0.9-0.2-1.9-0.3-2.8-0.5c-0.5-0.2-1-0.5-1.5-0.7c-0.3-0.2-0.5-0.3-0.8-0.5
			c-1.6-0.6-3.1-1.1-4.7-1.7c-15.1-6.9-30.8-12.7-45.1-20.9c-9.5-5.5-13.8-16-14.3-27.4c-0.5-10.9-0.7-21.7-1.3-32.6
			c-0.2-4.2-1.3-8.3-2-12.5c67.6,2,132.9-9.1,195.7-34.2c16.8-6.7,32.8-15.1,49.2-22.7c1.2-0.6,2.6-0.8,4-1.1
			c-0.6,1.1-1.1,2.4-1.8,3.4c-41.1,58.7-92.2,106.5-153.9,142.8c-5.7,3.4-11.4,6.6-17.2,9.9c-0.4-0.1-0.7-0.1-1.1-0.2
			C718.9,859.9,718.1,859.5,717.3,859z"/>
		<path class="st2" d="M329.3,844.8c2.2-18.5,4.1-36.8,6.7-54.9c0.4-2.6,3.5-6.1,6-6.9c4.5-1.4,9.5-1.5,14.2-1.3
			c4.8,0.2,6.1,3.9,5,8c-4.6,18.2-9.4,36.3-14.2,54.5c-2.1,7.8-4,15.6-6.5,23.2c-0.7,2.1-3.1,3.6-4.7,5.3c-1.2-2.1-2.9-4.1-3.4-6.3
			C331,859.2,330.2,852,329.3,844.8z"/>
		<path class="st3" d="M322.6,252.6c0.2,9.8-8,14.7-17.4,9.4c-11-6.3-20.2-12.8-17.3-28.9c0.4-2.4,4.1-6.1,6.3-6.1
			C307.3,227.2,323.2,236.6,322.6,252.6z"/>
		<path class="st3" d="M405.5,314.6c-9.1-0.7-20.7-8.8-22.4-16.3c-0.3-1.2-0.2-2.9,0.5-3.9c8.5-12.8,29.3-13,38.1-0.4
			c4.1,5.8,2.8,13-3.5,16.2C414.2,312.2,409.7,313.1,405.5,314.6z"/>
		<path class="st0" d="M707.5,855.7c1.6,0.6,3.1,1.1,4.7,1.7C710.6,856.8,709.1,856.3,707.5,855.7z"/>
		<path class="st0" d="M717.3,859c0.8,0.4,1.6,0.9,2.4,1.3C718.9,859.9,718.1,859.5,717.3,859z"/>
		<path class="st0" d="M713,857.9c0.5,0.2,1,0.5,1.5,0.7C714,858.3,713.5,858.1,713,857.9z"/>
	</g>
</g>
</svg>
